#!OML:ASF X:\für Bonn\!DataBase\2005_08_12_Daniel\c3d\Daniel.ASF
:FULLY-SPECIFIED
:DEGREES
17
root -4.02309 17.1121 -1.16129 332.581 -86.9392 -343.044
lowerback 20.9181 -2.29768 1.39237
upperback 0.731249 -3.10648 -2.57851
thorax -11.1758 -1.66025 -2.70967
lowerneck 7.74266 2.20343 -2.22892
upperneck 2.59336 2.65922 0.68007
head -0.519928 1.26528 0.505175
rclavicle 3.01361e-015 2.78299e-015
rhumerus 83.56 -34.1445 -192.577
rradius 11.5482
rwrist 156.236
rhand -23.3324 13.2151
rfingers 7.12502
rthumb 3.1221 -16.7418
lclavicle 3.01361e-015 2.78299e-015
lhumerus 54.5241 1.12491 96.705
lradius 7.26123
lwrist -68.9229
lhand -14.1651 3.5545
lfingers 7.12502
lthumb 11.9699 33.1923
rfemur 3.97774 4.65756 16.917
rtibia 26.1204
rfoot -26.2502 -11.9487
rtoes -13.0951
lfemur 175.337 192.181 -197.602
ltibia 36.2561
lfoot -25.7131 1.38961
ltoes 0.299101
18
root -4.0113 17.0716 -1.1578 332.151 -86.9985 -342.846
lowerback 21.3781 -2.29607 1.42259
upperback 0.784284 -3.10182 -2.59607
thorax -11.3749 -1.66209 -2.737
lowerneck 7.64921 2.20436 -2.18759
upperneck 2.65582 2.66623 0.690756
head -0.484393 1.2688 0.502442
rclavicle -4.47887e-015 8.74653e-015
rhumerus 83.9031 -34.1358 -193.18
rradius 11.5913
rwrist 156.85
rhand -23.4749 13.1845
rfingers 7.12502
rthumb 2.9845 -16.7743
lclavicle -4.47887e-015 8.74653e-015
lhumerus 54.4623 1.20114 96.6444
lradius 7.40309
lwrist -68.9084
lhand -14.1717 3.43324
lfingers 7.12502
lthumb 11.9635 33.0714
rfemur 3.1999 2.26705 16.1417
rtibia 27.5859
rfoot -25.9158 -10.1609
rtoes -14.1499
lfemur 174.926 190.65 -197.212
ltibia 37.0936
lfoot -25.4855 -0.0537337
ltoes 0.384329
19
root -3.99755 17.0231 -1.15422 331.587 -87.0809 -342.505
lowerback 21.8398 -2.28279 1.44762
upperback 0.849424 -3.08191 -2.60388
thorax -11.5587 -1.65625 -2.75563
lowerneck 7.50487 2.19862 -2.15397
upperneck 2.72199 2.66547 0.67666
head -0.438857 1.26899 0.494048
rclavicle -1.57941e-014 1.59028e-015
rhumerus 84.154 -34.0636 -193.648
rradius 11.6584
rwrist 157.397
rhand -23.6029 13.1373
rfingers 7.12502
rthumb 2.86089 -16.8233
lclavicle -1.57941e-014 1.59028e-015
lhumerus 54.4495 1.27056 96.6025
lradius 7.53165
lwrist -68.8947
lhand -14.2469 3.3714
lfingers 7.12502
lthumb 11.8911 33.0137
rfemur 2.3503 -0.0105716 15.3874
rtibia 29.2153
rfoot -25.7247 -8.34639
rtoes -14.8267
lfemur 174.415 188.987 -196.775
ltibia 38.0915
lfoot -25.2776 -1.59262
ltoes 0.499547
20
root -3.98254 16.9681 -1.1502 331.416 -87.1571 -342.565
lowerback 22.338 -2.28943 1.48062
upperback 0.900648 -3.08418 -2.5983
thorax -11.779 -1.6609 -2.75614
lowerneck 7.35492 2.21322 -2.15388
upperneck 2.81872 2.68855 0.678918
head -0.384143 1.28019 0.495824
rclavicle 2.32019e-015 1.70955e-014
rhumerus 84.5908 -33.9908 -194.525
rradius 11.7416
rwrist 158.302
rhand -23.7498 13.12
rfingers 7.12502
rthumb 2.71899 -16.8425
lclavicle 2.32019e-015 1.70955e-014
lhumerus 54.4464 1.38 96.559
lradius 7.61296
lwrist -68.8493
lhand -14.4189 3.31639
lfingers 7.12502
lthumb 11.7251 32.9682
rfemur 1.46338 -2.1766 14.6794
rtibia 30.9731
rfoot -25.6072 -6.60376
rtoes -15.1833
lfemur 173.821 187.285 -196.296
ltibia 39.2457
lfoot -25.1009 -3.23394
ltoes 0.663703
21
root -3.96689 16.9052 -1.14598 330.885 -87.2288 -342.265
lowerback 22.8455 -2.27922 1.5071
upperback 0.949197 -3.06691 -2.60098
thorax -12.0057 -1.65662 -2.76857
lowerneck 7.23509 2.20406 -2.12377
upperneck 2.87016 2.68222 0.665945
head -0.347485 1.27759 0.488283
rclavicle 4.20243e-015 3.18055e-015
rhumerus 84.9955 -33.8806 -195.28
rradius 11.8242
rwrist 159.064
rhand -23.9016 13.1117
rfingers 7.12502
rthumb 2.57241 -16.8526
lclavicle 4.20243e-015 3.18055e-015
lhumerus 54.389 1.47539 96.512
lradius 7.7587
lwrist -68.8295
lhand -14.6723 3.27951
lfingers 7.12502
lthumb 11.4808 32.9451
rfemur 0.529517 -4.16341 13.9901
rtibia 32.8498
rfoot -25.5114 -4.94676
rtoes -15.3724
lfemur 173.154 185.522 -195.813
ltibia 40.5552
lfoot -24.9386 -4.9457
ltoes 0.8221
22
root -3.95125 16.8377 -1.14193 330.694 -87.3127 -342.305
lowerback 23.3488 -2.27846 1.55307
upperback 1.00723 -3.05733 -2.60675
thorax -12.2202 -1.65726 -2.79364
lowerneck 7.08664 2.20494 -2.0928
upperneck 2.94619 2.68974 0.680573
head -0.299211 1.28155 0.489108
rclavicle -8.85213e-015 -4.37326e-015
rhumerus 85.5381 -33.7015 -196.386
rradius 11.9422
rwrist 160.104
rhand -24.0147 13.1301
rfingers 7.12502
rthumb 2.46319 -16.8354
lclavicle -8.85213e-015 -4.37326e-015
lhumerus 54.335 1.56137 96.4546
lradius 7.93589
lwrist -68.8132
lhand -14.9298 3.26085
lfingers 7.12502
lthumb 11.2324 32.9401
rfemur -0.435316 -5.94489 13.3767
rtibia 34.8167
rfoot -25.5414 -3.45002
rtoes -15.5016
lfemur 172.423 183.799 -195.301
ltibia 42.0085
lfoot -24.8217 -6.66526
ltoes 1.0482
23
root -3.93521 16.762 -1.13708 330.312 -87.3996 -342.149
lowerback 23.8533 -2.26945 1.59041
upperback 1.05608 -3.03722 -2.60168
thorax -12.4433 -1.65225 -2.80542
lowerneck 6.98921 2.20372 -2.08342
upperneck 3.00257 2.69128 0.674419
head -0.265435 1.28237 0.48675
rclavicle 1.64184e-014 1.27222e-014
rhumerus 86.0636 -33.474 -197.426
rradius 12.021
rwrist 161.051
rhand -24.0656 13.1482
rfingers 7.12502
rthumb 2.41403 -16.8179
lclavicle 1.64184e-014 1.27222e-014
lhumerus 54.3863 1.63938 96.4307
lradius 7.99482
lwrist -68.798
lhand -15.1961 3.23495
lfingers 7.12502
lthumb 10.9756 32.928
rfemur -1.44891 -7.63023 12.7712
rtibia 36.8819
rfoot -25.5496 -2.04612
rtoes -15.543
lfemur 171.629 182.12 -194.803
ltibia 43.5989
lfoot -24.7562 -8.34758
ltoes 1.28015
24
root -3.91959 16.678 -1.13278 330.078 -87.4808 -342.153
lowerback 24.3483 -2.26999 1.63673
upperback 1.12066 -3.02904 -2.60907
thorax -12.6441 -1.65392 -2.83296
lowerneck 6.94926 2.20463 -2.03922
upperneck 2.98956 2.69752 0.661124
head -0.262018 1.2865 0.475527
rclavicle -2.19906e-014 -7.55382e-015
rhumerus 86.7029 -33.1541 -198.793
rradius 12.1425
rwrist 162.249
rhand -24.0726 13.1342
rfingers 7.12502
rthumb 2.40728 -16.832
lclavicle -2.19906e-014 -7.55382e-015
lhumerus 54.6664 1.66543 96.4141
lradius 7.90144
lwrist -68.7932
lhand -15.3529 3.22171
lfingers 7.12502
lthumb 10.8243 32.9228
rfemur -2.48008 -9.21275 12.1846
rtibia 39.0188
rfoot -25.5826 -0.647221
rtoes -15.5162
lfemur 170.797 180.545 -194.312
ltibia 45.2938
lfoot -24.7958 -9.94975
ltoes 1.43337
25
root -3.90415 16.5848 -1.12795 329.638 -87.5768 -341.948
lowerback 24.8365 -2.2613 1.6806
upperback 1.18836 -3.0088 -2.61326
thorax -12.8355 -1.64992 -2.86022
lowerneck 6.90689 2.20798 -2.00683
upperneck 2.9885 2.70591 0.662663
head -0.254987 1.29133 0.470837
rclavicle -1.36851e-014 -2.78299e-015
rhumerus 87.3429 -32.7595 -200.224
rradius 12.3161
rwrist 163.492
rhand -24.0269 13.2054
rfingers 7.12502
rthumb 2.45138 -16.7602
lclavicle -1.36851e-014 -2.78299e-015
lhumerus 55.0988 1.66406 96.4235
lradius 7.701
lwrist -68.825
lhand -15.4401 3.27066
lfingers 7.12502
lthumb 10.7403 32.9761
rfemur -3.55515 -10.7054 11.6101
rtibia 41.2358
rfoot -25.5917 0.676144
rtoes -15.4276
lfemur 169.95 179.052 -193.842
ltibia 47.0575
lfoot -24.9038 -11.4359
ltoes 1.41562
26
root -3.88941 16.4897 -1.12363 329.088 -87.6521 -341.64
lowerback 25.326 -2.25299 1.70628
upperback 1.25642 -2.99309 -2.61091
thorax -13.0251 -1.64675 -2.86825
lowerneck 6.91082 2.20868 -1.99696
upperneck 2.96047 2.708 0.655162
head -0.264041 1.29288 0.466701
rclavicle -3.01283e-014 -1.94809e-014
rhumerus 87.8737 -32.3293 -201.524
rradius 12.5037
rwrist 164.653
rhand -23.9467 13.2844
rfingers 7.12502
rthumb 2.52886 -16.6804
lclavicle -3.01283e-014 -1.94809e-014
lhumerus 55.5511 1.65169 96.461
lradius 7.50841
lwrist -68.8615
lhand -15.3746 3.244
lfingers 7.12502
lthumb 10.8034 32.9462
rfemur -4.64663 -12.1133 11.0325
rtibia 43.5177
rfoot -25.5939 2.02451
rtoes -15.1702
lfemur 169.108 177.707 -193.411
ltibia 48.8458
lfoot -25.0686 -12.7682
ltoes 1.44108
27
root -3.87547 16.3934 -1.11978 328.447 -87.7349 -341.229
lowerback 25.8025 -2.2475 1.73657
upperback 1.31712 -2.98134 -2.62093
thorax -13.2166 -1.64635 -2.89223
lowerneck 6.98154 2.21228 -1.96796
upperneck 2.88043 2.714 0.647386
head -0.299958 1.29679 0.458387
rclavicle 3.83903e-015 -2.66371e-014
rhumerus 87.8382 -31.9633 -201.657
rradius 12.5655
rwrist 164.762
rhand -23.7252 13.3163
rfingers 7.12502
rthumb 2.74278 -16.6458
lclavicle 3.83903e-015 -2.66371e-014
lhumerus 55.9825 1.62364 96.4833
lradius 7.39162
lwrist -68.8755
lhand -15.1704 3.26228
lfingers 7.12502
lthumb 11.0004 32.9541
rfemur -5.77886 -13.4636 10.4603
rtibia 45.8601
rfoot -25.5414 3.37423
rtoes -14.7405
lfemur 168.279 176.515 -193.011
ltibia 50.6332
lfoot -25.3076 -13.9356
ltoes 1.36338
28
root -3.86074 16.2929 -1.1156 327.933 -87.831 -340.95
lowerback 26.2681 -2.23821 1.77796
upperback 1.4053 -2.96112 -2.62525
thorax -13.3684 -1.6426 -2.91978
lowerneck 7.01707 2.22013 -1.99348
upperneck 2.78986 2.72316 0.692669
head -0.335268 1.30175 0.475562
rclavicle 6.21202e-016 -2.0276e-014
rhumerus 87.0409 -31.6176 -200.349
rradius 12.5968
rwrist 163.647
rhand -23.3982 13.3538
rfingers 7.12502
rthumb 3.05858 -16.604
lclavicle 6.21202e-016 -2.0276e-014
lhumerus 56.4749 1.58264 96.5173
lradius 7.29942
lwrist -68.9194
lhand -14.8091 3.28686
lfingers 7.12502
lthumb 11.3488 32.9598
rfemur -6.94227 -14.7039 9.91475
rtibia 48.2574
rfoot -25.4495 4.65276
rtoes -14.3502
lfemur 167.465 175.461 -192.634
ltibia 52.4268
lfoot -25.6021 -14.9411
ltoes 1.14899
29
root -3.84504 16.1891 -1.1117 327.544 -87.9203 -340.815
lowerback 26.7845 -2.23381 1.81228
upperback 1.4762 -2.94772 -2.62207
thorax -13.5668 -1.6416 -2.93147
lowerneck 7.09033 2.23192 -2.01018
upperneck 2.70087 2.73682 0.711038
head -0.37582 1.30892 0.482579
rclavicle 2.55935e-015 5.56597e-015
rhumerus 86.0289 -31.2901 -198.589
rradius 12.6147
rwrist 162.173
rhand -23.0335 13.411
rfingers 7.12502
rthumb 3.41077 -16.5415
lclavicle 2.55935e-015 5.56597e-015
lhumerus 56.8757 1.53138 96.5746
lradius 7.33434
lwrist -69.007
lhand -14.3711 3.27619
lfingers 7.12502
lthumb 11.7712 32.9254
rfemur -8.10484 -15.8717 9.37145
rtibia 50.7021
rfoot -25.2419 5.95171
rtoes -13.7699
lfemur 166.659 174.528 -192.268
ltibia 54.2336
lfoot -25.9012 -15.8644
ltoes 1.14542
30
root -3.82887 16.0792 -1.10832 327.088 -88.0093 -340.601
lowerback 27.2695 -2.22233 1.85233
upperback 1.56643 -2.92573 -2.63164
thorax -13.7245 -1.63771 -2.96539
lowerneck 7.17563 2.22438 -2.0036
upperneck 2.57081 2.72701 0.723263
head -0.430449 1.30509 0.484172
rclavicle 2.44257e-014 9.54166e-015
rhumerus 85.3369 -30.8807 -197.381
rradius 12.6392
rwrist 161.151
rhand -22.802 13.4518
rfingers 7.12502
rthumb 3.6343 -16.497
lclavicle 2.44257e-014 9.54166e-015
lhumerus 57.274 1.44968 96.6177
lradius 7.45055
lwrist -69.1544
lhand -13.8829 3.29184
lfingers 7.12502
lthumb 12.242 32.9135
rfemur -9.31713 -16.9852 8.83598
rtibia 53.2004
rfoot -24.9704 7.21843
rtoes -13.2433
lfemur 165.825 173.659 -191.916
ltibia 56.0844
lfoot -26.2567 -16.7162
ltoes 0.963748
31
root -3.81243 15.9635 -1.10446 326.688 -88.0975 -340.463
lowerback 27.793 -2.22199 1.89854
upperback 1.63976 -2.91533 -2.63852
thorax -13.9228 -1.63975 -2.99503
lowerneck 7.3145 2.23872 -2.04282
upperneck 2.44231 2.74084 0.765488
head -0.495283 1.31192 0.501522
rclavicle 1.50828e-014 1.19271e-015
rhumerus 84.9952 -30.4837 -196.921
rradius 12.7114
rwrist 160.775
rhand -22.6775 13.5096
rfingers 7.12502
rthumb 3.75454 -16.437
lclavicle 1.50828e-014 1.19271e-015
lhumerus 57.5782 1.38091 96.6675
lradius 7.67545
lwrist -69.3971
lhand -13.4172 3.32355
lfingers 7.12502
lthumb 12.691 32.9179
rfemur -10.5264 -18.0129 8.3062
rtibia 55.7368
rfoot -24.614 8.45143
rtoes -12.6251
lfemur 164.987 172.87 -191.569
ltibia 57.9772
lfoot -26.613 -17.5335
ltoes 0.882911
